<svg width="40" height="40" viewBox="0 0 40 40" fill="none" xmlns="http://www.w3.org/2000/svg">
<path d="M23.2322 0H10C7.23858 0 5 2.23858 5 5V35C5 37.7614 7.23858 40 10 40H30C32.7614 40 35 37.7614 35 35V11.7678C35 11.1047 34.7366 10.4688 34.2678 10L25 0.732233C24.5312 0.263392 23.8953 0 23.2322 0ZM23.75 8.75V3.75L31.25 11.25H26.25C24.8693 11.25 23.75 10.1307 23.75 8.75ZM21.25 17.5V21.25H25C25.6904 21.25 26.25 21.8096 26.25 22.5C26.25 23.1904 25.6904 23.75 25 23.75H21.25V27.5C21.25 28.1904 20.6904 28.75 20 28.75C19.3096 28.75 18.75 28.1904 18.75 27.5V23.75H15C14.3096 23.75 13.75 23.1904 13.75 22.5C13.75 21.8096 14.3096 21.25 15 21.25H18.75V17.5C18.75 16.8096 19.3096 16.25 20 16.25C20.6904 16.25 21.25 16.8096 21.25 17.5Z" fill="black"/>
</svg>
